<?xml version="1.0" encoding="utf-8" standalone="no"?>
<!DOCTYPE svg PUBLIC "-//W3C//DTD SVG 1.1//EN"
  "http://www.w3.org/Graphics/SVG/1.1/DTD/svg11.dtd">
<svg xmlns:xlink="http://www.w3.org/1999/xlink" width="391.260781pt" height="315.972812pt" viewBox="0 0 391.260781 315.972812" xmlns="http://www.w3.org/2000/svg" version="1.1">
 <metadata>
  <rdf:RDF xmlns:dc="http://purl.org/dc/elements/1.1/" xmlns:cc="http://creativecommons.org/ns#" xmlns:rdf="http://www.w3.org/1999/02/22-rdf-syntax-ns#">
   <cc:Work>
    <dc:type rdf:resource="http://purl.org/dc/dcmitype/StillImage"/>
    <dc:date>2026-04-23T13:08:04.869202</dc:date>
    <dc:format>image/svg+xml</dc:format>
    <dc:creator>
     <cc:Agent>
      <dc:title>Matplotlib v3.10.8, https://matplotlib.org/</dc:title>
     </cc:Agent>
    </dc:creator>
   </cc:Work>
  </rdf:RDF>
 </metadata>
 <defs>
  <style type="text/css">*{stroke-linejoin: round; stroke-linecap: butt}</style>
 </defs>
 <g id="figure_1">
  <g id="patch_1">
   <path d="M 0 315.972812 
L 391.260781 315.972812 
L 391.260781 0 
L 0 0 
z
" style="fill: #ffffff"/>
  </g>
  <g id="axes_1">
   <g id="patch_2">
    <path d="M 37.218281 281.32 
L 381.515781 281.32 
L 381.515781 70.2 
L 37.218281 70.2 
z
" style="fill: #ffffff"/>
   </g>
   <g id="matplotlib.axis_1">
    <g id="xtick_1">
     <g id="line2d_1">
      <defs>
       <path id="m21d3d93a0c" d="M 0 0 
L 0 3.5 
" style="stroke: #000000; stroke-width: 0.5"/>
      </defs>
      <g>
       <use xlink:href="#m21d3d93a0c" x="37.218281" y="281.32" style="stroke: #000000; stroke-width: 0.5"/>
      </g>
     </g>
     <g id="text_1">
      <!-- 0 -->
      <g transform="translate(34.673281 294.39875) scale(0.08 -0.08)">
       <defs>
        <path id="DejaVuSerif-30" d="M 2034 219 
Q 2513 219 2750 744 
Q 2988 1269 2988 2328 
Q 2988 3391 2750 3916 
Q 2513 4441 2034 4441 
Q 1556 4441 1318 3916 
Q 1081 3391 1081 2328 
Q 1081 1269 1318 744 
Q 1556 219 2034 219 
z
M 2034 -91 
Q 1275 -91 848 546 
Q 422 1184 422 2328 
Q 422 3475 848 4112 
Q 1275 4750 2034 4750 
Q 2797 4750 3222 4112 
Q 3647 3475 3647 2328 
Q 3647 1184 3222 546 
Q 2797 -91 2034 -91 
z
" transform="scale(0.015625)"/>
       </defs>
       <use xlink:href="#DejaVuSerif-30"/>
      </g>
     </g>
    </g>
    <g id="xtick_2">
     <g id="line2d_2">
      <g>
       <use xlink:href="#m21d3d93a0c" x="106.077781" y="281.32" style="stroke: #000000; stroke-width: 0.5"/>
      </g>
     </g>
     <g id="text_2">
      <!-- 0.2 -->
      <g transform="translate(99.716531 294.39875) scale(0.08 -0.08)">
       <defs>
        <path id="DejaVuSerif-2e" d="M 603 325 
Q 603 500 722 622 
Q 841 744 1019 744 
Q 1191 744 1312 622 
Q 1434 500 1434 325 
Q 1434 153 1312 31 
Q 1191 -91 1019 -91 
Q 841 -91 722 29 
Q 603 150 603 325 
z
" transform="scale(0.015625)"/>
        <path id="DejaVuSerif-32" d="M 819 3553 
L 469 3553 
L 469 4384 
Q 803 4563 1142 4656 
Q 1481 4750 1806 4750 
Q 2534 4750 2956 4397 
Q 3378 4044 3378 3438 
Q 3378 2753 2422 1800 
Q 2347 1728 2309 1691 
L 1131 513 
L 3078 513 
L 3078 1088 
L 3444 1088 
L 3444 0 
L 434 0 
L 434 341 
L 1850 1753 
Q 2319 2222 2519 2614 
Q 2719 3006 2719 3438 
Q 2719 3909 2473 4175 
Q 2228 4441 1797 4441 
Q 1350 4441 1106 4219 
Q 863 3997 819 3553 
z
" transform="scale(0.015625)"/>
       </defs>
       <use xlink:href="#DejaVuSerif-30"/>
       <use xlink:href="#DejaVuSerif-2e" transform="translate(63.623047 0)"/>
       <use xlink:href="#DejaVuSerif-32" transform="translate(95.410156 0)"/>
      </g>
     </g>
    </g>
    <g id="xtick_3">
     <g id="line2d_3">
      <g>
       <use xlink:href="#m21d3d93a0c" x="174.937281" y="281.32" style="stroke: #000000; stroke-width: 0.5"/>
      </g>
     </g>
     <g id="text_3">
      <!-- 0.4 -->
      <g transform="translate(168.576031 294.39875) scale(0.08 -0.08)">
       <defs>
        <path id="DejaVuSerif-34" d="M 2234 1581 
L 2234 4063 
L 641 1581 
L 2234 1581 
z
M 3609 0 
L 1484 0 
L 1484 331 
L 2234 331 
L 2234 1247 
L 197 1247 
L 197 1588 
L 2241 4750 
L 2859 4750 
L 2859 1581 
L 3750 1581 
L 3750 1247 
L 2859 1247 
L 2859 331 
L 3609 331 
L 3609 0 
z
" transform="scale(0.015625)"/>
       </defs>
       <use xlink:href="#DejaVuSerif-30"/>
       <use xlink:href="#DejaVuSerif-2e" transform="translate(63.623047 0)"/>
       <use xlink:href="#DejaVuSerif-34" transform="translate(95.410156 0)"/>
      </g>
     </g>
    </g>
    <g id="xtick_4">
     <g id="line2d_4">
      <g>
       <use xlink:href="#m21d3d93a0c" x="243.796781" y="281.32" style="stroke: #000000; stroke-width: 0.5"/>
      </g>
     </g>
     <g id="text_4">
      <!-- 0.6 -->
      <g transform="translate(237.435531 294.39875) scale(0.08 -0.08)">
       <defs>
        <path id="DejaVuSerif-36" d="M 2094 219 
Q 2534 219 2771 542 
Q 3009 866 3009 1472 
Q 3009 2078 2771 2401 
Q 2534 2725 2094 2725 
Q 1647 2725 1412 2412 
Q 1178 2100 1178 1509 
Q 1178 888 1415 553 
Q 1653 219 2094 219 
z
M 1075 2569 
Q 1288 2803 1556 2918 
Q 1825 3034 2163 3034 
Q 2859 3034 3264 2615 
Q 3669 2197 3669 1472 
Q 3669 763 3233 336 
Q 2797 -91 2069 -91 
Q 1278 -91 853 498 
Q 428 1088 428 2181 
Q 428 3406 931 4078 
Q 1434 4750 2350 4750 
Q 2597 4750 2869 4703 
Q 3141 4656 3425 4563 
L 3425 3794 
L 3072 3794 
Q 3034 4109 2831 4275 
Q 2628 4441 2284 4441 
Q 1678 4441 1381 3981 
Q 1084 3522 1075 2569 
z
" transform="scale(0.015625)"/>
       </defs>
       <use xlink:href="#DejaVuSerif-30"/>
       <use xlink:href="#DejaVuSerif-2e" transform="translate(63.623047 0)"/>
       <use xlink:href="#DejaVuSerif-36" transform="translate(95.410156 0)"/>
      </g>
     </g>
    </g>
    <g id="xtick_5">
     <g id="line2d_5">
      <g>
       <use xlink:href="#m21d3d93a0c" x="312.656281" y="281.32" style="stroke: #000000; stroke-width: 0.5"/>
      </g>
     </g>
     <g id="text_5">
      <!-- 0.8 -->
      <g transform="translate(306.295031 294.39875) scale(0.08 -0.08)">
       <defs>
        <path id="DejaVuSerif-38" d="M 2981 1275 
Q 2981 1775 2732 2051 
Q 2484 2328 2034 2328 
Q 1584 2328 1336 2051 
Q 1088 1775 1088 1275 
Q 1088 772 1336 495 
Q 1584 219 2034 219 
Q 2484 219 2732 495 
Q 2981 772 2981 1275 
z
M 2853 3541 
Q 2853 3966 2637 4203 
Q 2422 4441 2034 4441 
Q 1650 4441 1433 4203 
Q 1216 3966 1216 3541 
Q 1216 3113 1433 2875 
Q 1650 2638 2034 2638 
Q 2422 2638 2637 2875 
Q 2853 3113 2853 3541 
z
M 2516 2484 
Q 3047 2413 3344 2092 
Q 3641 1772 3641 1275 
Q 3641 619 3225 264 
Q 2809 -91 2034 -91 
Q 1263 -91 845 264 
Q 428 619 428 1275 
Q 428 1772 725 2092 
Q 1022 2413 1556 2484 
Q 1084 2569 832 2842 
Q 581 3116 581 3541 
Q 581 4103 968 4426 
Q 1356 4750 2034 4750 
Q 2713 4750 3100 4426 
Q 3488 4103 3488 3541 
Q 3488 3116 3236 2842 
Q 2984 2569 2516 2484 
z
" transform="scale(0.015625)"/>
       </defs>
       <use xlink:href="#DejaVuSerif-30"/>
       <use xlink:href="#DejaVuSerif-2e" transform="translate(63.623047 0)"/>
       <use xlink:href="#DejaVuSerif-38" transform="translate(95.410156 0)"/>
      </g>
     </g>
    </g>
    <g id="xtick_6">
     <g id="line2d_6">
      <g>
       <use xlink:href="#m21d3d93a0c" x="381.515781" y="281.32" style="stroke: #000000; stroke-width: 0.5"/>
      </g>
     </g>
     <g id="text_6">
      <!-- 1 -->
      <g transform="translate(378.970781 294.39875) scale(0.08 -0.08)">
       <defs>
        <path id="DejaVuSerif-31" d="M 909 0 
L 909 331 
L 1722 331 
L 1722 4213 
L 781 3603 
L 781 4013 
L 1919 4750 
L 2350 4750 
L 2350 331 
L 3163 331 
L 3163 0 
L 909 0 
z
" transform="scale(0.015625)"/>
       </defs>
       <use xlink:href="#DejaVuSerif-31"/>
      </g>
     </g>
    </g>
    <g id="text_7">
     <!-- Fraction of DB STAs -->
     <g transform="translate(163.059922 306.901094) scale(0.09 -0.09)">
      <defs>
       <path id="DejaVuSerif-46" d="M 353 0 
L 353 331 
L 947 331 
L 947 4331 
L 353 4331 
L 353 4666 
L 4172 4666 
L 4172 3628 
L 3788 3628 
L 3788 4281 
L 1581 4281 
L 1581 2719 
L 3175 2719 
L 3175 3303 
L 3559 3303 
L 3559 1753 
L 3175 1753 
L 3175 2338 
L 1581 2338 
L 1581 331 
L 2328 331 
L 2328 0 
L 353 0 
z
" transform="scale(0.015625)"/>
       <path id="DejaVuSerif-72" d="M 3059 3328 
L 3059 2497 
L 2728 2497 
Q 2713 2744 2591 2866 
Q 2469 2988 2234 2988 
Q 1809 2988 1582 2694 
Q 1356 2400 1356 1850 
L 1356 331 
L 2022 331 
L 2022 0 
L 263 0 
L 263 331 
L 781 331 
L 781 2994 
L 231 2994 
L 231 3322 
L 1356 3322 
L 1356 2731 
Q 1525 3078 1790 3245 
Q 2056 3413 2438 3413 
Q 2578 3413 2733 3391 
Q 2888 3369 3059 3328 
z
" transform="scale(0.015625)"/>
       <path id="DejaVuSerif-61" d="M 2547 1044 
L 2547 1747 
L 1806 1747 
Q 1378 1747 1168 1562 
Q 959 1378 959 997 
Q 959 650 1171 447 
Q 1384 244 1747 244 
Q 2106 244 2326 466 
Q 2547 688 2547 1044 
z
M 3122 2075 
L 3122 331 
L 3634 331 
L 3634 0 
L 2547 0 
L 2547 359 
Q 2356 128 2106 18 
Q 1856 -91 1522 -91 
Q 969 -91 644 203 
Q 319 497 319 997 
Q 319 1513 691 1797 
Q 1063 2081 1741 2081 
L 2547 2081 
L 2547 2309 
Q 2547 2688 2317 2895 
Q 2088 3103 1672 3103 
Q 1328 3103 1125 2947 
Q 922 2791 872 2484 
L 575 2484 
L 575 3156 
Q 875 3284 1158 3348 
Q 1441 3413 1709 3413 
Q 2400 3413 2761 3070 
Q 3122 2728 3122 2075 
z
" transform="scale(0.015625)"/>
       <path id="DejaVuSerif-63" d="M 3291 997 
Q 3169 466 2822 187 
Q 2475 -91 1925 -91 
Q 1200 -91 759 389 
Q 319 869 319 1663 
Q 319 2459 759 2936 
Q 1200 3413 1925 3413 
Q 2241 3413 2553 3339 
Q 2866 3266 3181 3116 
L 3181 2266 
L 2847 2266 
Q 2781 2703 2561 2903 
Q 2341 3103 1931 3103 
Q 1466 3103 1228 2742 
Q 991 2381 991 1663 
Q 991 944 1227 581 
Q 1463 219 1931 219 
Q 2303 219 2525 412 
Q 2747 606 2828 997 
L 3291 997 
z
" transform="scale(0.015625)"/>
       <path id="DejaVuSerif-74" d="M 691 2988 
L 184 2988 
L 184 3322 
L 691 3322 
L 691 4353 
L 1269 4353 
L 1269 3322 
L 2350 3322 
L 2350 2988 
L 1269 2988 
L 1269 878 
Q 1269 456 1350 337 
Q 1431 219 1650 219 
Q 1875 219 1978 351 
Q 2081 484 2088 781 
L 2522 781 
Q 2497 328 2275 118 
Q 2053 -91 1600 -91 
Q 1103 -91 897 129 
Q 691 350 691 878 
L 691 2988 
z
" transform="scale(0.015625)"/>
       <path id="DejaVuSerif-69" d="M 622 4353 
Q 622 4497 726 4603 
Q 831 4709 978 4709 
Q 1122 4709 1226 4603 
Q 1331 4497 1331 4353 
Q 1331 4206 1228 4103 
Q 1125 4000 978 4000 
Q 831 4000 726 4103 
Q 622 4206 622 4353 
z
M 1356 331 
L 1900 331 
L 1900 0 
L 231 0 
L 231 331 
L 781 331 
L 781 2988 
L 231 2988 
L 231 3322 
L 1356 3322 
L 1356 331 
z
" transform="scale(0.015625)"/>
       <path id="DejaVuSerif-6f" d="M 1925 219 
Q 2388 219 2623 584 
Q 2859 950 2859 1663 
Q 2859 2375 2623 2739 
Q 2388 3103 1925 3103 
Q 1463 3103 1227 2739 
Q 991 2375 991 1663 
Q 991 950 1228 584 
Q 1466 219 1925 219 
z
M 1925 -91 
Q 1200 -91 759 389 
Q 319 869 319 1663 
Q 319 2456 758 2934 
Q 1197 3413 1925 3413 
Q 2653 3413 3092 2934 
Q 3531 2456 3531 1663 
Q 3531 869 3092 389 
Q 2653 -91 1925 -91 
z
" transform="scale(0.015625)"/>
       <path id="DejaVuSerif-6e" d="M 263 0 
L 263 331 
L 781 331 
L 781 2988 
L 231 2988 
L 231 3322 
L 1356 3322 
L 1356 2731 
Q 1516 3069 1770 3241 
Q 2025 3413 2363 3413 
Q 2913 3413 3172 3097 
Q 3431 2781 3431 2113 
L 3431 331 
L 3944 331 
L 3944 0 
L 2356 0 
L 2356 331 
L 2853 331 
L 2853 1931 
Q 2853 2541 2703 2767 
Q 2553 2994 2175 2994 
Q 1775 2994 1565 2701 
Q 1356 2409 1356 1850 
L 1356 331 
L 1856 331 
L 1856 0 
L 263 0 
z
" transform="scale(0.015625)"/>
       <path id="DejaVuSerif-20" transform="scale(0.015625)"/>
       <path id="DejaVuSerif-66" d="M 2753 4078 
L 2450 4078 
Q 2447 4313 2317 4434 
Q 2188 4556 1941 4556 
Q 1619 4556 1487 4379 
Q 1356 4203 1356 3750 
L 1356 3322 
L 2284 3322 
L 2284 2988 
L 1356 2988 
L 1356 331 
L 2094 331 
L 2094 0 
L 231 0 
L 231 331 
L 781 331 
L 781 2988 
L 231 2988 
L 231 3322 
L 781 3322 
L 781 3738 
Q 781 4294 1070 4578 
Q 1359 4863 1919 4863 
Q 2128 4863 2337 4825 
Q 2547 4788 2753 4709 
L 2753 4078 
z
" transform="scale(0.015625)"/>
       <path id="DejaVuSerif-44" d="M 1581 331 
L 2163 331 
Q 3072 331 3558 850 
Q 4044 1369 4044 2338 
Q 4044 3306 3559 3818 
Q 3075 4331 2163 4331 
L 1581 4331 
L 1581 331 
z
M 353 0 
L 353 331 
L 947 331 
L 947 4331 
L 353 4331 
L 353 4666 
L 2209 4666 
Q 3416 4666 4089 4050 
Q 4763 3434 4763 2338 
Q 4763 1238 4088 619 
Q 3413 0 2209 0 
L 353 0 
z
" transform="scale(0.015625)"/>
       <path id="DejaVuSerif-42" d="M 1581 331 
L 2516 331 
Q 3078 331 3337 575 
Q 3597 819 3597 1350 
Q 3597 1878 3339 2120 
Q 3081 2363 2516 2363 
L 1581 2363 
L 1581 331 
z
M 1581 2694 
L 2375 2694 
Q 2888 2694 3123 2891 
Q 3359 3088 3359 3513 
Q 3359 3941 3123 4136 
Q 2888 4331 2375 4331 
L 1581 4331 
L 1581 2694 
z
M 353 0 
L 353 331 
L 947 331 
L 947 4331 
L 353 4331 
L 353 4666 
L 2656 4666 
Q 3363 4666 3720 4377 
Q 4078 4088 4078 3513 
Q 4078 3097 3829 2850 
Q 3581 2603 3103 2547 
Q 3697 2472 4005 2167 
Q 4313 1863 4313 1350 
Q 4313 656 3875 328 
Q 3438 0 2509 0 
L 353 0 
z
" transform="scale(0.015625)"/>
       <path id="DejaVuSerif-53" d="M 594 225 
L 594 1288 
L 953 1284 
Q 969 753 1261 498 
Q 1553 244 2150 244 
Q 2706 244 2998 464 
Q 3291 684 3291 1106 
Q 3291 1444 3114 1625 
Q 2938 1806 2369 1978 
L 1753 2163 
Q 1084 2366 811 2669 
Q 538 2972 538 3500 
Q 538 4094 959 4422 
Q 1381 4750 2144 4750 
Q 2469 4750 2856 4679 
Q 3244 4609 3681 4475 
L 3681 3481 
L 3328 3481 
Q 3275 3975 2998 4195 
Q 2722 4416 2156 4416 
Q 1663 4416 1405 4214 
Q 1147 4013 1147 3628 
Q 1147 3294 1340 3103 
Q 1534 2913 2163 2725 
L 2741 2553 
Q 3375 2363 3645 2067 
Q 3916 1772 3916 1275 
Q 3916 597 3481 253 
Q 3047 -91 2188 -91 
Q 1803 -91 1404 -12 
Q 1006 66 594 225 
z
" transform="scale(0.015625)"/>
       <path id="DejaVuSerif-54" d="M 1222 0 
L 1222 331 
L 1819 331 
L 1819 4294 
L 447 4294 
L 447 3566 
L 63 3566 
L 63 4666 
L 4206 4666 
L 4206 3566 
L 3822 3566 
L 3822 4294 
L 2450 4294 
L 2450 331 
L 3047 331 
L 3047 0 
L 1222 0 
z
" transform="scale(0.015625)"/>
       <path id="DejaVuSerif-41" d="M 1281 1691 
L 2994 1691 
L 2138 3909 
L 1281 1691 
z
M -38 0 
L -38 331 
L 372 331 
L 2034 4666 
L 2559 4666 
L 4225 331 
L 4684 331 
L 4684 0 
L 2988 0 
L 2988 331 
L 3506 331 
L 3116 1356 
L 1153 1356 
L 763 331 
L 1275 331 
L 1275 0 
L -38 0 
z
" transform="scale(0.015625)"/>
       <path id="DejaVuSerif-73" d="M 359 184 
L 359 959 
L 691 959 
Q 703 588 923 403 
Q 1144 219 1575 219 
Q 1963 219 2166 364 
Q 2369 509 2369 788 
Q 2369 1006 2220 1140 
Q 2072 1275 1594 1428 
L 1178 1569 
Q 750 1706 558 1912 
Q 366 2119 366 2438 
Q 366 2894 700 3153 
Q 1034 3413 1625 3413 
Q 1888 3413 2178 3344 
Q 2469 3275 2778 3144 
L 2778 2419 
L 2447 2419 
Q 2434 2741 2221 2922 
Q 2009 3103 1644 3103 
Q 1281 3103 1095 2975 
Q 909 2847 909 2591 
Q 909 2381 1050 2254 
Q 1191 2128 1613 1997 
L 2069 1856 
Q 2541 1709 2748 1489 
Q 2956 1269 2956 922 
Q 2956 450 2595 179 
Q 2234 -91 1600 -91 
Q 1278 -91 972 -22 
Q 666 47 359 184 
z
" transform="scale(0.015625)"/>
      </defs>
      <use xlink:href="#DejaVuSerif-46"/>
      <use xlink:href="#DejaVuSerif-72" transform="translate(69.384766 0)"/>
      <use xlink:href="#DejaVuSerif-61" transform="translate(117.1875 0)"/>
      <use xlink:href="#DejaVuSerif-63" transform="translate(176.806641 0)"/>
      <use xlink:href="#DejaVuSerif-74" transform="translate(232.8125 0)"/>
      <use xlink:href="#DejaVuSerif-69" transform="translate(272.998047 0)"/>
      <use xlink:href="#DejaVuSerif-6f" transform="translate(304.980469 0)"/>
      <use xlink:href="#DejaVuSerif-6e" transform="translate(365.185547 0)"/>
      <use xlink:href="#DejaVuSerif-20" transform="translate(429.589844 0)"/>
      <use xlink:href="#DejaVuSerif-6f" transform="translate(461.376953 0)"/>
      <use xlink:href="#DejaVuSerif-66" transform="translate(521.582031 0)"/>
      <use xlink:href="#DejaVuSerif-20" transform="translate(558.59375 0)"/>
      <use xlink:href="#DejaVuSerif-44" transform="translate(590.380859 0)"/>
      <use xlink:href="#DejaVuSerif-42" transform="translate(670.556641 0)"/>
      <use xlink:href="#DejaVuSerif-20" transform="translate(744.042969 0)"/>
      <use xlink:href="#DejaVuSerif-53" transform="translate(775.830078 0)"/>
      <use xlink:href="#DejaVuSerif-54" transform="translate(844.335938 0)"/>
      <use xlink:href="#DejaVuSerif-41" transform="translate(905.535156 0)"/>
      <use xlink:href="#DejaVuSerif-73" transform="translate(977.751953 0)"/>
     </g>
    </g>
   </g>
   <g id="matplotlib.axis_2">
    <g id="ytick_1">
     <g id="line2d_7">
      <path d="M 37.218281 281.32 
L 381.515781 281.32 
" clip-path="url(#p1052f371c6)" style="fill: none; stroke: #b0b0b0; stroke-opacity: 0.35; stroke-width: 0.5; stroke-linecap: square"/>
     </g>
     <g id="line2d_8">
      <defs>
       <path id="m5f58eadfb6" d="M 0 0 
L -3.5 0 
" style="stroke: #000000; stroke-width: 0.5"/>
      </defs>
      <g>
       <use xlink:href="#m5f58eadfb6" x="37.218281" y="281.32" style="stroke: #000000; stroke-width: 0.5"/>
      </g>
     </g>
     <g id="text_8">
      <!-- 0 -->
      <g transform="translate(25.128281 284.359375) scale(0.08 -0.08)">
       <use xlink:href="#DejaVuSerif-30"/>
      </g>
     </g>
    </g>
    <g id="ytick_2">
     <g id="line2d_9">
      <path d="M 37.218281 246.133333 
L 381.515781 246.133333 
" clip-path="url(#p1052f371c6)" style="fill: none; stroke: #b0b0b0; stroke-opacity: 0.35; stroke-width: 0.5; stroke-linecap: square"/>
     </g>
     <g id="line2d_10">
      <g>
       <use xlink:href="#m5f58eadfb6" x="37.218281" y="246.133333" style="stroke: #000000; stroke-width: 0.5"/>
      </g>
     </g>
     <g id="text_9">
      <!-- 5 -->
      <g transform="translate(25.128281 249.172708) scale(0.08 -0.08)">
       <defs>
        <path id="DejaVuSerif-35" d="M 3219 4666 
L 3219 4153 
L 1081 4153 
L 1081 2816 
Q 1244 2928 1461 2984 
Q 1678 3041 1947 3041 
Q 2703 3041 3140 2622 
Q 3578 2203 3578 1478 
Q 3578 738 3136 323 
Q 2694 -91 1894 -91 
Q 1572 -91 1234 -12 
Q 897 66 544 225 
L 544 1131 
L 897 1131 
Q 925 688 1179 453 
Q 1434 219 1894 219 
Q 2388 219 2653 544 
Q 2919 869 2919 1478 
Q 2919 2084 2655 2407 
Q 2391 2731 1894 2731 
Q 1613 2731 1398 2631 
Q 1184 2531 1019 2322 
L 750 2322 
L 750 4666 
L 3219 4666 
z
" transform="scale(0.015625)"/>
       </defs>
       <use xlink:href="#DejaVuSerif-35"/>
      </g>
     </g>
    </g>
    <g id="ytick_3">
     <g id="line2d_11">
      <path d="M 37.218281 210.946667 
L 381.515781 210.946667 
" clip-path="url(#p1052f371c6)" style="fill: none; stroke: #b0b0b0; stroke-opacity: 0.35; stroke-width: 0.5; stroke-linecap: square"/>
     </g>
     <g id="line2d_12">
      <g>
       <use xlink:href="#m5f58eadfb6" x="37.218281" y="210.946667" style="stroke: #000000; stroke-width: 0.5"/>
      </g>
     </g>
     <g id="text_10">
      <!-- 10 -->
      <g transform="translate(20.038281 213.986042) scale(0.08 -0.08)">
       <use xlink:href="#DejaVuSerif-31"/>
       <use xlink:href="#DejaVuSerif-30" transform="translate(63.623047 0)"/>
      </g>
     </g>
    </g>
    <g id="ytick_4">
     <g id="line2d_13">
      <path d="M 37.218281 175.76 
L 381.515781 175.76 
" clip-path="url(#p1052f371c6)" style="fill: none; stroke: #b0b0b0; stroke-opacity: 0.35; stroke-width: 0.5; stroke-linecap: square"/>
     </g>
     <g id="line2d_14">
      <g>
       <use xlink:href="#m5f58eadfb6" x="37.218281" y="175.76" style="stroke: #000000; stroke-width: 0.5"/>
      </g>
     </g>
     <g id="text_11">
      <!-- 15 -->
      <g transform="translate(20.038281 178.799375) scale(0.08 -0.08)">
       <use xlink:href="#DejaVuSerif-31"/>
       <use xlink:href="#DejaVuSerif-35" transform="translate(63.623047 0)"/>
      </g>
     </g>
    </g>
    <g id="ytick_5">
     <g id="line2d_15">
      <path d="M 37.218281 140.573333 
L 381.515781 140.573333 
" clip-path="url(#p1052f371c6)" style="fill: none; stroke: #b0b0b0; stroke-opacity: 0.35; stroke-width: 0.5; stroke-linecap: square"/>
     </g>
     <g id="line2d_16">
      <g>
       <use xlink:href="#m5f58eadfb6" x="37.218281" y="140.573333" style="stroke: #000000; stroke-width: 0.5"/>
      </g>
     </g>
     <g id="text_12">
      <!-- 20 -->
      <g transform="translate(20.038281 143.612708) scale(0.08 -0.08)">
       <use xlink:href="#DejaVuSerif-32"/>
       <use xlink:href="#DejaVuSerif-30" transform="translate(63.623047 0)"/>
      </g>
     </g>
    </g>
    <g id="ytick_6">
     <g id="line2d_17">
      <path d="M 37.218281 105.386667 
L 381.515781 105.386667 
" clip-path="url(#p1052f371c6)" style="fill: none; stroke: #b0b0b0; stroke-opacity: 0.35; stroke-width: 0.5; stroke-linecap: square"/>
     </g>
     <g id="line2d_18">
      <g>
       <use xlink:href="#m5f58eadfb6" x="37.218281" y="105.386667" style="stroke: #000000; stroke-width: 0.5"/>
      </g>
     </g>
     <g id="text_13">
      <!-- 25 -->
      <g transform="translate(20.038281 108.426042) scale(0.08 -0.08)">
       <use xlink:href="#DejaVuSerif-32"/>
       <use xlink:href="#DejaVuSerif-35" transform="translate(63.623047 0)"/>
      </g>
     </g>
    </g>
    <g id="ytick_7">
     <g id="line2d_19">
      <path d="M 37.218281 70.2 
L 381.515781 70.2 
" clip-path="url(#p1052f371c6)" style="fill: none; stroke: #b0b0b0; stroke-opacity: 0.35; stroke-width: 0.5; stroke-linecap: square"/>
     </g>
     <g id="line2d_20">
      <g>
       <use xlink:href="#m5f58eadfb6" x="37.218281" y="70.2" style="stroke: #000000; stroke-width: 0.5"/>
      </g>
     </g>
     <g id="text_14">
      <!-- 30 -->
      <g transform="translate(20.038281 73.239375) scale(0.08 -0.08)">
       <defs>
        <path id="DejaVuSerif-33" d="M 622 4469 
Q 988 4606 1323 4678 
Q 1659 4750 1953 4750 
Q 2638 4750 3022 4454 
Q 3406 4159 3406 3634 
Q 3406 3213 3140 2930 
Q 2875 2647 2388 2547 
Q 2963 2466 3280 2130 
Q 3597 1794 3597 1259 
Q 3597 606 3158 257 
Q 2719 -91 1894 -91 
Q 1528 -91 1179 -12 
Q 831 66 488 225 
L 488 1131 
L 838 1131 
Q 869 681 1141 450 
Q 1413 219 1906 219 
Q 2384 219 2661 495 
Q 2938 772 2938 1253 
Q 2938 1803 2653 2086 
Q 2369 2369 1819 2369 
L 1522 2369 
L 1522 2688 
L 1678 2688 
Q 2225 2688 2498 2914 
Q 2772 3141 2772 3597 
Q 2772 4006 2547 4223 
Q 2322 4441 1900 4441 
Q 1478 4441 1245 4241 
Q 1013 4041 972 3647 
L 622 3647 
L 622 4469 
z
" transform="scale(0.015625)"/>
       </defs>
       <use xlink:href="#DejaVuSerif-33"/>
       <use xlink:href="#DejaVuSerif-30" transform="translate(63.623047 0)"/>
      </g>
     </g>
    </g>
    <g id="text_15">
     <!-- Throughput per station [Mbit/s] -->
     <g transform="translate(14.038594 248.498281) rotate(-90) scale(0.09 -0.09)">
      <defs>
       <path id="DejaVuSerif-68" d="M 263 0 
L 263 331 
L 781 331 
L 781 4531 
L 231 4531 
L 231 4863 
L 1356 4863 
L 1356 2731 
Q 1516 3069 1770 3241 
Q 2025 3413 2363 3413 
Q 2913 3413 3172 3097 
Q 3431 2781 3431 2113 
L 3431 331 
L 3944 331 
L 3944 0 
L 2356 0 
L 2356 331 
L 2853 331 
L 2853 1931 
Q 2853 2541 2704 2764 
Q 2556 2988 2175 2988 
Q 1775 2988 1565 2697 
Q 1356 2406 1356 1850 
L 1356 331 
L 1856 331 
L 1856 0 
L 263 0 
z
" transform="scale(0.015625)"/>
       <path id="DejaVuSerif-75" d="M 2266 3322 
L 3341 3322 
L 3341 331 
L 3884 331 
L 3884 0 
L 2766 0 
L 2766 588 
Q 2606 256 2353 82 
Q 2100 -91 1766 -91 
Q 1213 -91 952 223 
Q 691 538 691 1209 
L 691 2988 
L 172 2988 
L 172 3322 
L 1269 3322 
L 1269 1388 
Q 1269 781 1417 556 
Q 1566 331 1947 331 
Q 2347 331 2556 625 
Q 2766 919 2766 1478 
L 2766 2988 
L 2266 2988 
L 2266 3322 
z
" transform="scale(0.015625)"/>
       <path id="DejaVuSerif-67" d="M 3359 2988 
L 3359 72 
Q 3359 -644 2965 -1033 
Q 2572 -1422 1844 -1422 
Q 1516 -1422 1216 -1362 
Q 916 -1303 641 -1184 
L 641 -488 
L 941 -488 
Q 997 -813 1206 -963 
Q 1416 -1113 1806 -1113 
Q 2313 -1113 2548 -827 
Q 2784 -541 2784 72 
L 2784 519 
Q 2616 206 2355 57 
Q 2094 -91 1709 -91 
Q 1097 -91 708 395 
Q 319 881 319 1663 
Q 319 2444 706 2928 
Q 1094 3413 1709 3413 
Q 2094 3413 2355 3264 
Q 2616 3116 2784 2803 
L 2784 3322 
L 3909 3322 
L 3909 2988 
L 3359 2988 
z
M 2784 1825 
Q 2784 2422 2554 2737 
Q 2325 3053 1888 3053 
Q 1444 3053 1217 2703 
Q 991 2353 991 1663 
Q 991 975 1217 622 
Q 1444 269 1888 269 
Q 2325 269 2554 583 
Q 2784 897 2784 1497 
L 2784 1825 
z
" transform="scale(0.015625)"/>
       <path id="DejaVuSerif-70" d="M 1313 1825 
L 1313 1497 
Q 1313 897 1542 583 
Q 1772 269 2209 269 
Q 2650 269 2876 622 
Q 3103 975 3103 1663 
Q 3103 2353 2876 2703 
Q 2650 3053 2209 3053 
Q 1772 3053 1542 2737 
Q 1313 2422 1313 1825 
z
M 738 2988 
L 184 2988 
L 184 3322 
L 1313 3322 
L 1313 2803 
Q 1481 3116 1742 3264 
Q 2003 3413 2388 3413 
Q 3000 3413 3387 2928 
Q 3775 2444 3775 1663 
Q 3775 881 3387 395 
Q 3000 -91 2388 -91 
Q 2003 -91 1742 57 
Q 1481 206 1313 519 
L 1313 -997 
L 1856 -997 
L 1856 -1331 
L 184 -1331 
L 184 -997 
L 738 -997 
L 738 2988 
z
" transform="scale(0.015625)"/>
       <path id="DejaVuSerif-65" d="M 3469 1600 
L 991 1600 
L 991 1575 
Q 991 903 1244 561 
Q 1497 219 1991 219 
Q 2369 219 2611 417 
Q 2853 616 2950 1006 
L 3413 1006 
Q 3275 459 2904 184 
Q 2534 -91 1931 -91 
Q 1203 -91 761 389 
Q 319 869 319 1663 
Q 319 2450 753 2931 
Q 1188 3413 1894 3413 
Q 2647 3413 3050 2948 
Q 3453 2484 3469 1600 
z
M 2791 1931 
Q 2772 2513 2545 2808 
Q 2319 3103 1894 3103 
Q 1497 3103 1269 2806 
Q 1041 2509 991 1931 
L 2791 1931 
z
" transform="scale(0.015625)"/>
       <path id="DejaVuSerif-5b" d="M 550 4863 
L 2003 4863 
L 2003 4531 
L 1147 4531 
L 1147 -513 
L 2003 -513 
L 2003 -844 
L 550 -844 
L 550 4863 
z
" transform="scale(0.015625)"/>
       <path id="DejaVuSerif-4d" d="M 353 0 
L 353 331 
L 947 331 
L 947 4331 
L 319 4331 
L 319 4666 
L 1678 4666 
L 3316 1344 
L 4953 4666 
L 6228 4666 
L 6228 4331 
L 5606 4331 
L 5606 331 
L 6203 331 
L 6203 0 
L 4378 0 
L 4378 331 
L 4972 331 
L 4972 3938 
L 3372 684 
L 2931 684 
L 1331 3938 
L 1331 331 
L 1925 331 
L 1925 0 
L 353 0 
z
" transform="scale(0.015625)"/>
       <path id="DejaVuSerif-62" d="M 738 331 
L 738 4531 
L 184 4531 
L 184 4863 
L 1313 4863 
L 1313 2803 
Q 1481 3116 1742 3264 
Q 2003 3413 2388 3413 
Q 3000 3413 3387 2928 
Q 3775 2444 3775 1663 
Q 3775 881 3387 395 
Q 3000 -91 2388 -91 
Q 2003 -91 1742 57 
Q 1481 206 1313 519 
L 1313 0 
L 184 0 
L 184 331 
L 738 331 
z
M 1313 1497 
Q 1313 897 1542 583 
Q 1772 269 2209 269 
Q 2650 269 2876 622 
Q 3103 975 3103 1663 
Q 3103 2353 2876 2703 
Q 2650 3053 2209 3053 
Q 1772 3053 1542 2737 
Q 1313 2422 1313 1825 
L 1313 1497 
z
" transform="scale(0.015625)"/>
       <path id="DejaVuSerif-2f" d="M 1656 4666 
L 2156 4666 
L 500 -594 
L 0 -594 
L 1656 4666 
z
" transform="scale(0.015625)"/>
       <path id="DejaVuSerif-5d" d="M 1947 4863 
L 1947 -844 
L 494 -844 
L 494 -513 
L 1350 -513 
L 1350 4531 
L 494 4531 
L 494 4863 
L 1947 4863 
z
" transform="scale(0.015625)"/>
      </defs>
      <use xlink:href="#DejaVuSerif-54"/>
      <use xlink:href="#DejaVuSerif-68" transform="translate(66.699219 0)"/>
      <use xlink:href="#DejaVuSerif-72" transform="translate(131.103516 0)"/>
      <use xlink:href="#DejaVuSerif-6f" transform="translate(178.90625 0)"/>
      <use xlink:href="#DejaVuSerif-75" transform="translate(239.111328 0)"/>
      <use xlink:href="#DejaVuSerif-67" transform="translate(303.515625 0)"/>
      <use xlink:href="#DejaVuSerif-68" transform="translate(367.529297 0)"/>
      <use xlink:href="#DejaVuSerif-70" transform="translate(431.933594 0)"/>
      <use xlink:href="#DejaVuSerif-75" transform="translate(495.947266 0)"/>
      <use xlink:href="#DejaVuSerif-74" transform="translate(560.351562 0)"/>
      <use xlink:href="#DejaVuSerif-20" transform="translate(600.537109 0)"/>
      <use xlink:href="#DejaVuSerif-70" transform="translate(632.324219 0)"/>
      <use xlink:href="#DejaVuSerif-65" transform="translate(696.337891 0)"/>
      <use xlink:href="#DejaVuSerif-72" transform="translate(755.517578 0)"/>
      <use xlink:href="#DejaVuSerif-20" transform="translate(803.320312 0)"/>
      <use xlink:href="#DejaVuSerif-73" transform="translate(835.107422 0)"/>
      <use xlink:href="#DejaVuSerif-74" transform="translate(886.425781 0)"/>
      <use xlink:href="#DejaVuSerif-61" transform="translate(926.611328 0)"/>
      <use xlink:href="#DejaVuSerif-74" transform="translate(986.230469 0)"/>
      <use xlink:href="#DejaVuSerif-69" transform="translate(1026.416016 0)"/>
      <use xlink:href="#DejaVuSerif-6f" transform="translate(1058.398438 0)"/>
      <use xlink:href="#DejaVuSerif-6e" transform="translate(1118.603516 0)"/>
      <use xlink:href="#DejaVuSerif-20" transform="translate(1183.007812 0)"/>
      <use xlink:href="#DejaVuSerif-5b" transform="translate(1214.794922 0)"/>
      <use xlink:href="#DejaVuSerif-4d" transform="translate(1253.808594 0)"/>
      <use xlink:href="#DejaVuSerif-62" transform="translate(1356.201172 0)"/>
      <use xlink:href="#DejaVuSerif-69" transform="translate(1420.214844 0)"/>
      <use xlink:href="#DejaVuSerif-74" transform="translate(1452.197266 0)"/>
      <use xlink:href="#DejaVuSerif-2f" transform="translate(1492.382812 0)"/>
      <use xlink:href="#DejaVuSerif-73" transform="translate(1526.074219 0)"/>
      <use xlink:href="#DejaVuSerif-5d" transform="translate(1577.392578 0)"/>
     </g>
    </g>
   </g>
   <g id="patch_3">
    <path d="M 37.218281 281.32 
L 37.218281 70.2 
" style="fill: none; stroke: #000000; stroke-width: 0.5; stroke-linejoin: miter; stroke-linecap: square"/>
   </g>
   <g id="patch_4">
    <path d="M 381.515781 281.32 
L 381.515781 70.2 
" style="fill: none; stroke: #000000; stroke-width: 0.5; stroke-linejoin: miter; stroke-linecap: square"/>
   </g>
   <g id="patch_5">
    <path d="M 37.218281 281.32 
L 381.515781 281.32 
" style="fill: none; stroke: #000000; stroke-width: 0.5; stroke-linejoin: miter; stroke-linecap: square"/>
   </g>
   <g id="patch_6">
    <path d="M 37.218281 70.2 
L 381.515781 70.2 
" style="fill: none; stroke: #000000; stroke-width: 0.5; stroke-linejoin: miter; stroke-linecap: square"/>
   </g>
   <g id="line2d_21">
    <path d="M 106.077781 118.058089 
L 174.937281 109.330036 
L 243.796781 104.604819 
L 312.656281 104.221988 
L 381.515781 108.335309 
" clip-path="url(#p1052f371c6)" style="fill: none; stroke: #440154; stroke-width: 1.5; stroke-linecap: square"/>
    <defs>
     <path id="m0ed8ca468a" d="M 0 3 
C 0.795609 3 1.55874 2.683901 2.12132 2.12132 
C 2.683901 1.55874 3 0.795609 3 0 
C 3 -0.795609 2.683901 -1.55874 2.12132 -2.12132 
C 1.55874 -2.683901 0.795609 -3 0 -3 
C -0.795609 -3 -1.55874 -2.683901 -2.12132 -2.12132 
C -2.683901 -1.55874 -3 -0.795609 -3 0 
C -3 0.795609 -2.683901 1.55874 -2.12132 2.12132 
C -1.55874 2.683901 -0.795609 3 0 3 
z
" style="stroke: #440154"/>
    </defs>
    <g clip-path="url(#p1052f371c6)">
     <use xlink:href="#m0ed8ca468a" x="106.077781" y="118.058089" style="fill: #440154; stroke: #440154"/>
     <use xlink:href="#m0ed8ca468a" x="174.937281" y="109.330036" style="fill: #440154; stroke: #440154"/>
     <use xlink:href="#m0ed8ca468a" x="243.796781" y="104.604819" style="fill: #440154; stroke: #440154"/>
     <use xlink:href="#m0ed8ca468a" x="312.656281" y="104.221988" style="fill: #440154; stroke: #440154"/>
     <use xlink:href="#m0ed8ca468a" x="381.515781" y="108.335309" style="fill: #440154; stroke: #440154"/>
    </g>
   </g>
   <g id="line2d_22">
    <path d="M 106.077781 131.61903 
L 174.937281 124.936027 
L 243.796781 116.164812 
L 312.656281 107.238013 
L 381.515781 101.435908 
" clip-path="url(#p1052f371c6)" style="fill: none; stroke: #39568c; stroke-width: 1.5; stroke-linecap: square"/>
    <defs>
     <path id="m8eeecafaf8" d="M -3 3 
L 3 3 
L 3 -3 
L -3 -3 
z
" style="stroke: #39568c; stroke-linejoin: miter"/>
    </defs>
    <g clip-path="url(#p1052f371c6)">
     <use xlink:href="#m8eeecafaf8" x="106.077781" y="131.61903" style="fill: #39568c; stroke: #39568c; stroke-linejoin: miter"/>
     <use xlink:href="#m8eeecafaf8" x="174.937281" y="124.936027" style="fill: #39568c; stroke: #39568c; stroke-linejoin: miter"/>
     <use xlink:href="#m8eeecafaf8" x="243.796781" y="116.164812" style="fill: #39568c; stroke: #39568c; stroke-linejoin: miter"/>
     <use xlink:href="#m8eeecafaf8" x="312.656281" y="107.238013" style="fill: #39568c; stroke: #39568c; stroke-linejoin: miter"/>
     <use xlink:href="#m8eeecafaf8" x="381.515781" y="101.435908" style="fill: #39568c; stroke: #39568c; stroke-linejoin: miter"/>
    </g>
   </g>
   <g id="line2d_23">
    <path d="M 37.218281 109.455653 
L 106.077781 107.271968 
L 174.937281 109.315844 
L 243.796781 115.780808 
L 312.656281 126.675304 
" clip-path="url(#p1052f371c6)" style="fill: none; stroke: #1f988b; stroke-width: 1.5; stroke-linecap: square"/>
    <defs>
     <path id="md00cc07f0c" d="M 0 3 
C 0.795609 3 1.55874 2.683901 2.12132 2.12132 
C 2.683901 1.55874 3 0.795609 3 0 
C 3 -0.795609 2.683901 -1.55874 2.12132 -2.12132 
C 1.55874 -2.683901 0.795609 -3 0 -3 
C -0.795609 -3 -1.55874 -2.683901 -2.12132 -2.12132 
C -2.683901 -1.55874 -3 -0.795609 -3 0 
C -3 0.795609 -2.683901 1.55874 -2.12132 2.12132 
C -1.55874 2.683901 -0.795609 3 0 3 
z
" style="stroke: #1f988b"/>
    </defs>
    <g clip-path="url(#p1052f371c6)">
     <use xlink:href="#md00cc07f0c" x="37.218281" y="109.455653" style="fill: #1f988b; stroke: #1f988b"/>
     <use xlink:href="#md00cc07f0c" x="106.077781" y="107.271968" style="fill: #1f988b; stroke: #1f988b"/>
     <use xlink:href="#md00cc07f0c" x="174.937281" y="109.315844" style="fill: #1f988b; stroke: #1f988b"/>
     <use xlink:href="#md00cc07f0c" x="243.796781" y="115.780808" style="fill: #1f988b; stroke: #1f988b"/>
     <use xlink:href="#md00cc07f0c" x="312.656281" y="126.675304" style="fill: #1f988b; stroke: #1f988b"/>
    </g>
   </g>
   <g id="line2d_24">
    <path d="M 37.218281 128.26363 
L 106.077781 126.899795 
L 174.937281 125.547454 
L 243.796781 125.982478 
L 312.656281 130.971596 
" clip-path="url(#p1052f371c6)" style="fill: none; stroke: #7ad151; stroke-width: 1.5; stroke-linecap: square"/>
    <defs>
     <path id="ma9a921b2f8" d="M -3 3 
L 3 3 
L 3 -3 
L -3 -3 
z
" style="stroke: #7ad151; stroke-linejoin: miter"/>
    </defs>
    <g clip-path="url(#p1052f371c6)">
     <use xlink:href="#ma9a921b2f8" x="37.218281" y="128.26363" style="fill: #7ad151; stroke: #7ad151; stroke-linejoin: miter"/>
     <use xlink:href="#ma9a921b2f8" x="106.077781" y="126.899795" style="fill: #7ad151; stroke: #7ad151; stroke-linejoin: miter"/>
     <use xlink:href="#ma9a921b2f8" x="174.937281" y="125.547454" style="fill: #7ad151; stroke: #7ad151; stroke-linejoin: miter"/>
     <use xlink:href="#ma9a921b2f8" x="243.796781" y="125.982478" style="fill: #7ad151; stroke: #7ad151; stroke-linejoin: miter"/>
     <use xlink:href="#ma9a921b2f8" x="312.656281" y="130.971596" style="fill: #7ad151; stroke: #7ad151; stroke-linejoin: miter"/>
    </g>
   </g>
   <g id="legend_1">
    <g id="patch_7">
     <path d="M 42.118281 277.82 
L 112.014375 277.82 
Q 113.414375 277.82 113.414375 276.42 
L 113.414375 236.02125 
Q 113.414375 234.62125 112.014375 234.62125 
L 42.118281 234.62125 
Q 40.718281 234.62125 40.718281 236.02125 
L 40.718281 276.42 
Q 40.718281 277.82 42.118281 277.82 
z
" style="fill: #ffffff; opacity: 0.8; stroke: #cccccc; stroke-linejoin: miter"/>
    </g>
    <g id="line2d_25">
     <path d="M 43.518281 240.290156 
L 50.518281 240.290156 
L 57.518281 240.290156 
" style="fill: none; stroke: #440154; stroke-width: 1.5; stroke-linecap: square"/>
     <g>
      <use xlink:href="#m0ed8ca468a" x="50.518281" y="240.290156" style="fill: #440154; stroke: #440154"/>
     </g>
    </g>
    <g id="text_16">
     <!-- DB, RTS ON -->
     <g transform="translate(63.118281 242.740156) scale(0.07 -0.07)">
      <defs>
       <path id="DejaVuSerif-2c" d="M 231 -622 
Q 525 -406 662 -114 
Q 800 178 800 594 
L 800 709 
L 1416 709 
Q 1391 175 1164 -208 
Q 938 -591 481 -872 
L 231 -622 
z
" transform="scale(0.015625)"/>
       <path id="DejaVuSerif-52" d="M 3066 2316 
Q 3284 2256 3442 2114 
Q 3600 1972 3725 1716 
L 4403 331 
L 4972 331 
L 4972 0 
L 3872 0 
L 3144 1484 
Q 2934 1916 2759 2042 
Q 2584 2169 2278 2169 
L 1581 2169 
L 1581 331 
L 2241 331 
L 2241 0 
L 353 0 
L 353 331 
L 947 331 
L 947 4331 
L 353 4331 
L 353 4666 
L 2719 4666 
Q 3400 4666 3770 4341 
Q 4141 4016 4141 3419 
Q 4141 2938 3870 2661 
Q 3600 2384 3066 2316 
z
M 1581 2503 
L 2503 2503 
Q 2975 2503 3200 2726 
Q 3425 2950 3425 3419 
Q 3425 3888 3200 4109 
Q 2975 4331 2503 4331 
L 1581 4331 
L 1581 2503 
z
" transform="scale(0.015625)"/>
       <path id="DejaVuSerif-4f" d="M 2625 244 
Q 3391 244 3781 770 
Q 4172 1297 4172 2328 
Q 4172 3363 3781 3889 
Q 3391 4416 2625 4416 
Q 1856 4416 1465 3889 
Q 1075 3363 1075 2328 
Q 1075 1297 1465 770 
Q 1856 244 2625 244 
z
M 2625 -91 
Q 2150 -91 1751 65 
Q 1353 222 1050 525 
Q 700 875 529 1319 
Q 359 1763 359 2328 
Q 359 2894 529 3339 
Q 700 3784 1050 4134 
Q 1356 4441 1750 4595 
Q 2144 4750 2625 4750 
Q 3641 4750 4266 4084 
Q 4891 3419 4891 2328 
Q 4891 1769 4719 1320 
Q 4547 872 4197 525 
Q 3891 219 3497 64 
Q 3103 -91 2625 -91 
z
" transform="scale(0.015625)"/>
       <path id="DejaVuSerif-4e" d="M 313 0 
L 313 331 
L 941 331 
L 941 4331 
L 313 4331 
L 313 4666 
L 1509 4666 
L 4306 984 
L 4306 4331 
L 3681 4331 
L 3681 4666 
L 5319 4666 
L 5319 4331 
L 4691 4331 
L 4691 -91 
L 4313 -91 
L 1325 3841 
L 1325 331 
L 1953 331 
L 1953 0 
L 313 0 
z
" transform="scale(0.015625)"/>
      </defs>
      <use xlink:href="#DejaVuSerif-44"/>
      <use xlink:href="#DejaVuSerif-42" transform="translate(80.175781 0)"/>
      <use xlink:href="#DejaVuSerif-2c" transform="translate(153.662109 0)"/>
      <use xlink:href="#DejaVuSerif-20" transform="translate(185.449219 0)"/>
      <use xlink:href="#DejaVuSerif-52" transform="translate(217.236328 0)"/>
      <use xlink:href="#DejaVuSerif-54" transform="translate(290.779297 0)"/>
      <use xlink:href="#DejaVuSerif-53" transform="translate(357.478516 0)"/>
      <use xlink:href="#DejaVuSerif-20" transform="translate(425.984375 0)"/>
      <use xlink:href="#DejaVuSerif-4f" transform="translate(457.771484 0)"/>
      <use xlink:href="#DejaVuSerif-4e" transform="translate(539.753906 0)"/>
     </g>
    </g>
    <g id="line2d_26">
     <path d="M 43.518281 250.564844 
L 50.518281 250.564844 
L 57.518281 250.564844 
" style="fill: none; stroke: #39568c; stroke-width: 1.5; stroke-linecap: square"/>
     <g>
      <use xlink:href="#m8eeecafaf8" x="50.518281" y="250.564844" style="fill: #39568c; stroke: #39568c; stroke-linejoin: miter"/>
     </g>
    </g>
    <g id="text_17">
     <!-- DB, RTS OFF -->
     <g transform="translate(63.118281 253.014844) scale(0.07 -0.07)">
      <use xlink:href="#DejaVuSerif-44"/>
      <use xlink:href="#DejaVuSerif-42" transform="translate(80.175781 0)"/>
      <use xlink:href="#DejaVuSerif-2c" transform="translate(153.662109 0)"/>
      <use xlink:href="#DejaVuSerif-20" transform="translate(185.449219 0)"/>
      <use xlink:href="#DejaVuSerif-52" transform="translate(217.236328 0)"/>
      <use xlink:href="#DejaVuSerif-54" transform="translate(290.779297 0)"/>
      <use xlink:href="#DejaVuSerif-53" transform="translate(357.478516 0)"/>
      <use xlink:href="#DejaVuSerif-20" transform="translate(425.984375 0)"/>
      <use xlink:href="#DejaVuSerif-4f" transform="translate(457.771484 0)"/>
      <use xlink:href="#DejaVuSerif-46" transform="translate(539.753906 0)"/>
      <use xlink:href="#DejaVuSerif-46" transform="translate(609.138672 0)"/>
     </g>
    </g>
    <g id="line2d_27">
     <path d="M 43.518281 260.839531 
L 50.518281 260.839531 
L 57.518281 260.839531 
" style="fill: none; stroke: #1f988b; stroke-width: 1.5; stroke-linecap: square"/>
     <g>
      <use xlink:href="#md00cc07f0c" x="50.518281" y="260.839531" style="fill: #1f988b; stroke: #1f988b"/>
     </g>
    </g>
    <g id="text_18">
     <!-- EB, RTS ON -->
     <g transform="translate(63.118281 263.289531) scale(0.07 -0.07)">
      <defs>
       <path id="DejaVuSerif-45" d="M 353 0 
L 353 331 
L 947 331 
L 947 4331 
L 353 4331 
L 353 4666 
L 4109 4666 
L 4109 3628 
L 3725 3628 
L 3725 4281 
L 1581 4281 
L 1581 2719 
L 3109 2719 
L 3109 3303 
L 3494 3303 
L 3494 1753 
L 3109 1753 
L 3109 2338 
L 1581 2338 
L 1581 384 
L 3775 384 
L 3775 1038 
L 4159 1038 
L 4159 0 
L 353 0 
z
" transform="scale(0.015625)"/>
      </defs>
      <use xlink:href="#DejaVuSerif-45"/>
      <use xlink:href="#DejaVuSerif-42" transform="translate(72.998047 0)"/>
      <use xlink:href="#DejaVuSerif-2c" transform="translate(146.484375 0)"/>
      <use xlink:href="#DejaVuSerif-20" transform="translate(178.271484 0)"/>
      <use xlink:href="#DejaVuSerif-52" transform="translate(210.058594 0)"/>
      <use xlink:href="#DejaVuSerif-54" transform="translate(283.601562 0)"/>
      <use xlink:href="#DejaVuSerif-53" transform="translate(350.300781 0)"/>
      <use xlink:href="#DejaVuSerif-20" transform="translate(418.806641 0)"/>
      <use xlink:href="#DejaVuSerif-4f" transform="translate(450.59375 0)"/>
      <use xlink:href="#DejaVuSerif-4e" transform="translate(532.576172 0)"/>
     </g>
    </g>
    <g id="line2d_28">
     <path d="M 43.518281 271.114219 
L 50.518281 271.114219 
L 57.518281 271.114219 
" style="fill: none; stroke: #7ad151; stroke-width: 1.5; stroke-linecap: square"/>
     <g>
      <use xlink:href="#ma9a921b2f8" x="50.518281" y="271.114219" style="fill: #7ad151; stroke: #7ad151; stroke-linejoin: miter"/>
     </g>
    </g>
    <g id="text_19">
     <!-- EB, RTS OFF -->
     <g transform="translate(63.118281 273.564219) scale(0.07 -0.07)">
      <use xlink:href="#DejaVuSerif-45"/>
      <use xlink:href="#DejaVuSerif-42" transform="translate(72.998047 0)"/>
      <use xlink:href="#DejaVuSerif-2c" transform="translate(146.484375 0)"/>
      <use xlink:href="#DejaVuSerif-20" transform="translate(178.271484 0)"/>
      <use xlink:href="#DejaVuSerif-52" transform="translate(210.058594 0)"/>
      <use xlink:href="#DejaVuSerif-54" transform="translate(283.601562 0)"/>
      <use xlink:href="#DejaVuSerif-53" transform="translate(350.300781 0)"/>
      <use xlink:href="#DejaVuSerif-20" transform="translate(418.806641 0)"/>
      <use xlink:href="#DejaVuSerif-4f" transform="translate(450.59375 0)"/>
      <use xlink:href="#DejaVuSerif-46" transform="translate(532.576172 0)"/>
      <use xlink:href="#DejaVuSerif-46" transform="translate(601.960938 0)"/>
     </g>
    </g>
   </g>
  </g>
  <g id="text_20">
   <!-- Throughput per station vs fraction of DB STAs for 5 STA -->
   <g transform="translate(41.546969 15.406312) scale(0.108 -0.108)">
    <defs>
     <path id="DejaVuSerif-76" d="M 1581 0 
L 359 2988 
L -19 2988 
L -19 3322 
L 1509 3322 
L 1509 2988 
L 978 2988 
L 1913 703 
L 2847 2988 
L 2350 2988 
L 2350 3322 
L 3597 3322 
L 3597 2988 
L 3225 2988 
L 2003 0 
L 1581 0 
z
" transform="scale(0.015625)"/>
    </defs>
    <use xlink:href="#DejaVuSerif-54"/>
    <use xlink:href="#DejaVuSerif-68" transform="translate(66.699219 0)"/>
    <use xlink:href="#DejaVuSerif-72" transform="translate(131.103516 0)"/>
    <use xlink:href="#DejaVuSerif-6f" transform="translate(178.90625 0)"/>
    <use xlink:href="#DejaVuSerif-75" transform="translate(239.111328 0)"/>
    <use xlink:href="#DejaVuSerif-67" transform="translate(303.515625 0)"/>
    <use xlink:href="#DejaVuSerif-68" transform="translate(367.529297 0)"/>
    <use xlink:href="#DejaVuSerif-70" transform="translate(431.933594 0)"/>
    <use xlink:href="#DejaVuSerif-75" transform="translate(495.947266 0)"/>
    <use xlink:href="#DejaVuSerif-74" transform="translate(560.351562 0)"/>
    <use xlink:href="#DejaVuSerif-20" transform="translate(600.537109 0)"/>
    <use xlink:href="#DejaVuSerif-70" transform="translate(632.324219 0)"/>
    <use xlink:href="#DejaVuSerif-65" transform="translate(696.337891 0)"/>
    <use xlink:href="#DejaVuSerif-72" transform="translate(755.517578 0)"/>
    <use xlink:href="#DejaVuSerif-20" transform="translate(803.320312 0)"/>
    <use xlink:href="#DejaVuSerif-73" transform="translate(835.107422 0)"/>
    <use xlink:href="#DejaVuSerif-74" transform="translate(886.425781 0)"/>
    <use xlink:href="#DejaVuSerif-61" transform="translate(926.611328 0)"/>
    <use xlink:href="#DejaVuSerif-74" transform="translate(986.230469 0)"/>
    <use xlink:href="#DejaVuSerif-69" transform="translate(1026.416016 0)"/>
    <use xlink:href="#DejaVuSerif-6f" transform="translate(1058.398438 0)"/>
    <use xlink:href="#DejaVuSerif-6e" transform="translate(1118.603516 0)"/>
    <use xlink:href="#DejaVuSerif-20" transform="translate(1183.007812 0)"/>
    <use xlink:href="#DejaVuSerif-76" transform="translate(1214.794922 0)"/>
    <use xlink:href="#DejaVuSerif-73" transform="translate(1271.289062 0)"/>
    <use xlink:href="#DejaVuSerif-20" transform="translate(1322.607422 0)"/>
    <use xlink:href="#DejaVuSerif-66" transform="translate(1354.394531 0)"/>
    <use xlink:href="#DejaVuSerif-72" transform="translate(1391.40625 0)"/>
    <use xlink:href="#DejaVuSerif-61" transform="translate(1439.208984 0)"/>
    <use xlink:href="#DejaVuSerif-63" transform="translate(1498.828125 0)"/>
    <use xlink:href="#DejaVuSerif-74" transform="translate(1554.833984 0)"/>
    <use xlink:href="#DejaVuSerif-69" transform="translate(1595.019531 0)"/>
    <use xlink:href="#DejaVuSerif-6f" transform="translate(1627.001953 0)"/>
    <use xlink:href="#DejaVuSerif-6e" transform="translate(1687.207031 0)"/>
    <use xlink:href="#DejaVuSerif-20" transform="translate(1751.611328 0)"/>
    <use xlink:href="#DejaVuSerif-6f" transform="translate(1783.398438 0)"/>
    <use xlink:href="#DejaVuSerif-66" transform="translate(1843.603516 0)"/>
    <use xlink:href="#DejaVuSerif-20" transform="translate(1880.615234 0)"/>
    <use xlink:href="#DejaVuSerif-44" transform="translate(1912.402344 0)"/>
    <use xlink:href="#DejaVuSerif-42" transform="translate(1992.578125 0)"/>
    <use xlink:href="#DejaVuSerif-20" transform="translate(2066.064453 0)"/>
    <use xlink:href="#DejaVuSerif-53" transform="translate(2097.851562 0)"/>
    <use xlink:href="#DejaVuSerif-54" transform="translate(2166.357422 0)"/>
    <use xlink:href="#DejaVuSerif-41" transform="translate(2227.556641 0)"/>
    <use xlink:href="#DejaVuSerif-73" transform="translate(2299.773438 0)"/>
    <use xlink:href="#DejaVuSerif-20" transform="translate(2351.091797 0)"/>
    <use xlink:href="#DejaVuSerif-66" transform="translate(2382.878906 0)"/>
    <use xlink:href="#DejaVuSerif-6f" transform="translate(2419.890625 0)"/>
    <use xlink:href="#DejaVuSerif-72" transform="translate(2480.095703 0)"/>
    <use xlink:href="#DejaVuSerif-20" transform="translate(2527.898438 0)"/>
    <use xlink:href="#DejaVuSerif-35" transform="translate(2559.685547 0)"/>
    <use xlink:href="#DejaVuSerif-20" transform="translate(2623.308594 0)"/>
    <use xlink:href="#DejaVuSerif-53" transform="translate(2655.095703 0)"/>
    <use xlink:href="#DejaVuSerif-54" transform="translate(2723.601562 0)"/>
    <use xlink:href="#DejaVuSerif-41" transform="translate(2784.800781 0)"/>
   </g>
   <!--  -->
   <g transform="translate(195.823281 27.653512) scale(0.108 -0.108)"/>
  </g>
 </g>
 <defs>
  <clipPath id="p1052f371c6">
   <rect x="37.218281" y="70.2" width="344.2975" height="211.12"/>
  </clipPath>
 </defs>
</svg>
